# xmcd
#
# Track frame offsets:
# 150
# 13906
# 29999
# 46447
# 61063
# 78512
# 95024
# 110851
# 126628
# 140488
# 152820
# 171289
# 187572
# 201971
# 219552
# 237602
# 251351
# 264829
# 281862
# 297175
# 313324
#
# Disc length: 4361 seconds
#
#
# Revision: 0
# Processed by: cddbd v1.5.2PL0 Copyright (c) Steve Scherf et al.
# Submitted via: FreeRIP 2.943 
#
DISCID=4c110715
DTITLE=Alan and Aladim - Maiores Sucessos
DYEAR=1900
DGENRE=Country
TTITLE0=Liguei Pra Dizer Que Te Amo
TTITLE1=Dois Passarinhos
TTITLE2=Dois Graus
TTITLE3=Pra Poder Voltar Aqui
TTITLE4=Canção da Família
TTITLE5=Dona
TTITLE6=Inimigo Perfeito
TTITLE7=Me Deixe Entrar Em Sua Vida
TTITLE8=Eu Não Sei Nem Viver
TTITLE9=Chama do Prazer
TTITLE10=Felicidade Amor
TTITLE11=A Distância
TTITLE12=Aprendiz do Amor
TTITLE13=Não Vá
TTITLE14=Nossa Estrela
TTITLE15=Eu Nem Sei Existir
TTITLE16=Meu Companheiro
TTITLE17=Mulher
TTITLE18=Castigo
TTITLE19=Paixão
TTITLE20=Você Ainda Vive Em Mim
EXTD=
EXTT0=
EXTT1=
EXTT2=
EXTT3=
EXTT4=
EXTT5=
EXTT6=
EXTT7=
EXTT8=
EXTT9=
EXTT10=
EXTT11=
EXTT12=
EXTT13=
EXTT14=
EXTT15=
EXTT16=
EXTT17=
EXTT18=
EXTT19=
EXTT20=
PLAYORDER=
